<svg xmlns="http://www.w3.org/2000/svg" width="1200" height="300" viewBox="0 0 1200 300" fill="none" role="img" aria-label="nullnode — Your public key is your account. Messages travel peer to peer over WebRTC, and the relay only ever sees ciphertext.">
  <defs>
    <linearGradient id="b-light-g" x1="0" y1="0" x2="1" y2="1"><stop offset="0" stop-color="#ffffff"/><stop offset="1" stop-color="#f6f8fa"/></linearGradient>
    <radialGradient id="b-light-h" cx="0.8" cy="0.5" r="0.5"><stop offset="0" stop-color="#d8a35f" stop-opacity="0.14"/><stop offset="1" stop-color="#d8a35f" stop-opacity="0"/></radialGradient>
  </defs>
  <rect width="1200" height="300" rx="16" fill="url(#b-light-g)"/>
  <rect width="1200" height="300" rx="16" fill="url(#b-light-h)"/>
  <rect x="1" y="1" width="1198" height="298" rx="15" stroke="#d0d7de" stroke-width="1.5"/>
  <g transform="translate(72,66)">
    <rect x="0" y="-11" width="26" height="2" rx="1" fill="#d8a35f"/>
    <text x="40" y="-5" font-family="ui-monospace,'SF Mono',Consolas,monospace" font-size="13" letter-spacing="3" fill="#59636e">ENCRYPTED P2P MESSAGING</text>
  </g>
  <text x="70" y="140" font-family="Georgia,'Times New Roman',serif" font-size="62" font-weight="600" fill="#1f2328" letter-spacing="0.5">nullnode</text>
  <line x1="72" y1="160" x2="300" y2="160" stroke="#d8a35f" stroke-width="2" stroke-linecap="round"/>
  <text x="72" y="196" font-family="ui-monospace,'SF Mono',Consolas,monospace" font-size="17" fill="#3b4149">Your public key is your account. Messages travel peer to peer over</text><text x="72" y="222" font-family="ui-monospace,'SF Mono',Consolas,monospace" font-size="17" fill="#3b4149">WebRTC, and the relay only ever sees ciphertext.</text>
  <rect x="72" y="247" width="98" height="22" rx="11" fill="#ffffff" stroke="#d0d7de"/>
        <text x="121" y="262" text-anchor="middle" font-family="ui-monospace,'SF Mono',Consolas,monospace" font-size="11.5" fill="#59636e">TypeScript</text><rect x="178" y="247" width="67.6" height="22" rx="11" fill="#ffffff" stroke="#d0d7de"/>
        <text x="211.8" y="262" text-anchor="middle" font-family="ui-monospace,'SF Mono',Consolas,monospace" font-size="11.5" fill="#59636e">WebRTC</text><rect x="253.6" y="247" width="90.39999999999999" height="22" rx="11" fill="#ffffff" stroke="#d0d7de"/>
        <text x="298.8" y="262" text-anchor="middle" font-family="ui-monospace,'SF Mono',Consolas,monospace" font-size="11.5" fill="#59636e">libsodium</text><rect x="352" y="247" width="82.8" height="22" rx="11" fill="#ffffff" stroke="#d0d7de"/>
        <text x="393.4" y="262" text-anchor="middle" font-family="ui-monospace,'SF Mono',Consolas,monospace" font-size="11.5" fill="#59636e">Tauri v2</text><rect x="442.8" y="247" width="44.8" height="22" rx="11" fill="#ffffff" stroke="#d0d7de"/>
        <text x="465.2" y="262" text-anchor="middle" font-family="ui-monospace,'SF Mono',Consolas,monospace" font-size="11.5" fill="#59636e">Bun</text>
  <g opacity="0.9"><line x1="890" y1="110" x2="960" y2="150" stroke="#a0a8b1" stroke-width="1.2"/><line x1="1000" y1="90" x2="960" y2="150" stroke="#a0a8b1" stroke-width="1.2"/><line x1="1040" y1="170" x2="960" y2="150" stroke="#a0a8b1" stroke-width="1.2"/><line x1="970" y1="220" x2="960" y2="150" stroke="#a0a8b1" stroke-width="1.2"/><line x1="900" y1="190" x2="960" y2="150" stroke="#a0a8b1" stroke-width="1.2"/><line x1="890" y1="110" x2="1000" y2="90" stroke="#a0a8b1" stroke-width="1.2"/><line x1="1000" y1="90" x2="1040" y2="170" stroke="#a0a8b1" stroke-width="1.2"/><line x1="1040" y1="170" x2="970" y2="220" stroke="#a0a8b1" stroke-width="1.2"/><line x1="970" y1="220" x2="900" y2="190" stroke="#a0a8b1" stroke-width="1.2"/><line x1="900" y1="190" x2="890" y2="110" stroke="#a0a8b1" stroke-width="1.2"/><circle cx="890" cy="110" r="5" fill="#f6f8fa" stroke="#d8a35f" stroke-width="2"/><circle cx="1000" cy="90" r="5" fill="#f6f8fa" stroke="#d8a35f" stroke-width="2"/><circle cx="1040" cy="170" r="5" fill="#f6f8fa" stroke="#d8a35f" stroke-width="2"/><circle cx="970" cy="220" r="5" fill="#f6f8fa" stroke="#d8a35f" stroke-width="2"/><circle cx="900" cy="190" r="5" fill="#f6f8fa" stroke="#d8a35f" stroke-width="2"/><circle cx="960" cy="150" r="7" fill="#d8a35f" stroke="#d8a35f" stroke-width="2"/></g>
  <text x="1128" y="280" text-anchor="end" font-family="ui-monospace,'SF Mono',Consolas,monospace" font-size="12" fill="#a0a8b1">github.com/chrlstopher-c/nullnode</text>
</svg>